<svg xmlns="http://www.w3.org/2000/svg" width="883.968" height="607.464" viewBox="0 0 883.968 607.464">
  <defs>
    <style>
      .cls-1 {
        fill: #fff;
      }

      .cls-2 {
        fill: #3f3d56;
      }

      .cls-3 {
        fill: #e6e6e6;
      }

      .cls-4 {
        fill: #ffb013;
      }

      .cls-5 {
        fill: #ccc;
      }

      .cls-6 {
        fill: #1acefa;
      }

      .cls-7 {
        fill: #9f616a;
      }

      .cls-8 {
        fill: #e5e5e5;
      }

      .cls-9 {
        fill: #2f2e41;
      }

      .cls-10 {
        opacity: 0.2;
      }

      .cls-11 {
        fill: #f1f1f1;
      }
    </style>
  </defs>
  <g id="undraw_subscriber_re_om92" transform="translate(0 0)">
    <path id="Path_18" data-name="Path 18" class="cls-1" d="M930.734,274.341h-.125l-71.49,30.527-97.813,41.767a3.155,3.155,0,0,1-2.416.012L657.975,304.78l-73.246-30.39-.112-.05h-.125a4.364,4.364,0,0,0-4.359,4.359V468.012a4.364,4.364,0,0,0,4.359,4.359H930.734a4.364,4.364,0,0,0,4.359-4.359V278.7a4.364,4.364,0,0,0-4.359-4.359Z" transform="translate(-158.016 -146.268)"/>
    <path id="Path_19" data-name="Path 19" class="cls-2" d="M931.045,275.586a.621.621,0,0,1-.355-.112L758.466,155.533a3.123,3.123,0,0,0-3.567.006L583.916,275.473a.623.623,0,1,1-.715-1.02L754.184,154.519a4.373,4.373,0,0,1,4.994-.008L931.4,274.452a.623.623,0,0,1-.356,1.134Z" transform="translate(-158.016 -146.268)"/>
    <path id="Path_20" data-name="Path 20" class="cls-3" d="M435.67,133.57,598.834,12.645l164.4,129.529-156,92.476-84.692-19.3Z"/>
    <path id="Path_21" data-name="Path 21" class="cls-4" d="M687.714,438.037H607.107a3.766,3.766,0,1,1-.011-7.532h80.618a3.766,3.766,0,0,1,.011,7.532Z" transform="translate(-158.016 -146.268)"/>
    <path id="Path_22" data-name="Path 22" class="cls-4" d="M636.027,421.846h-28.92a3.766,3.766,0,1,1-.011-7.532h28.931a3.766,3.766,0,1,1,.011,7.532Z" transform="translate(-158.016 -146.268)"/>
    <path id="Path_23" data-name="Path 23" class="cls-1" d="M759.145,347.191a4.711,4.711,0,0,1-1.787-.35L656.73,305.087v-130.7a4.364,4.364,0,0,1,4.359-4.359H854.137a4.364,4.364,0,0,1,4.359,4.359V305.179l-.189.081-97.322,41.561a4.744,4.744,0,0,1-1.841.37Z" transform="translate(-158.016 -146.268)"/>
    <path id="Path_24" data-name="Path 24" class="cls-2" d="M759.145,347.5a5.026,5.026,0,0,1-1.905-.373L656.418,305.3v-130.9a4.676,4.676,0,0,1,4.671-4.671H854.137a4.676,4.676,0,0,1,4.671,4.671V305.384l-97.7,41.723A5.05,5.05,0,0,1,759.145,347.5ZM657.664,304.463l100.051,41.515a3.81,3.81,0,0,0,2.907-.017l96.94-41.4V174.391a3.429,3.429,0,0,0-3.425-3.425H661.089a3.429,3.429,0,0,0-3.425,3.425Z" transform="translate(-158.016 -146.268)"/>
    <path id="Path_25" data-name="Path 25" class="cls-2" d="M929.8,274.341h-.125l-71.49,30.526-97.813,41.767a3.155,3.155,0,0,1-2.416.012L657.041,304.78l-73.246-30.39-.112-.05h-.125A4.364,4.364,0,0,0,579.2,278.7V468.012a4.364,4.364,0,0,0,4.359,4.359H929.8a4.364,4.364,0,0,0,4.359-4.359V278.7a4.364,4.364,0,0,0-4.359-4.359Zm3.114,193.671a3.115,3.115,0,0,1-3.114,3.114H583.558a3.115,3.115,0,0,1-3.114-3.114V278.7a3.121,3.121,0,0,1,3-3.114l73.6,30.539L757.476,347.8a4.435,4.435,0,0,0,3.388-.019l97.321-41.562,71.739-30.632a3.124,3.124,0,0,1,2.989,3.114Z" transform="translate(-158.016 -146.268)"/>
    <path id="Path_26" data-name="Path 26" class="cls-4" d="M743.479,218.887h-68.5a4.982,4.982,0,0,1,0-9.964h68.5a4.982,4.982,0,0,1,0,9.964Z" transform="translate(-158.016 -146.268)"/>
    <path id="Path_27" data-name="Path 27" class="cls-4" d="M707.983,197.714h-33a4.982,4.982,0,0,1,0-9.964h33.005a4.982,4.982,0,0,1,0,9.964Z" transform="translate(-158.016 -146.268)"/>
    <path id="Path_28" data-name="Path 28" class="cls-5" d="M808.847,268.706H704.227a4.982,4.982,0,0,1,0-9.964h104.62a4.982,4.982,0,0,1,0,9.964Z" transform="translate(-158.016 -146.268)"/>
    <path id="Path_29" data-name="Path 29" class="cls-5" d="M808.847,291.747H704.227a4.982,4.982,0,0,1,0-9.964h104.62a4.982,4.982,0,0,1,0,9.964Z" transform="translate(-158.016 -146.268)"/>
    <circle id="Ellipse_4" data-name="Ellipse 4" class="cls-6" cx="47.371" cy="47.371" r="47.371" transform="translate(722.482 82.507)"/>
    <path id="Path_30" data-name="Path 30" class="cls-1" d="M765.339,149.875l-14.178-18.231,8.245-6.413,6.713,8.632L788.8,109.922l7.584,7.185Z"/>
    <path id="Path_31" data-name="Path 31" class="cls-7" d="M397.781,556.121a10.056,10.056,0,0,1,4.214-14.832l-3.081-35.6,16.326,8.848.423,32.451a10.11,10.11,0,0,1-17.882,9.134Z" transform="translate(-158.016 -146.268)"/>
    <path id="Path_32" data-name="Path 32" class="cls-8" d="M400.875,533.6l-.133-.336-18.012-45.5-2.858-86.253.48-.034a26.466,26.466,0,0,1,28.321,25.113l2.642,46.374L418.8,532.6Z" transform="translate(-158.016 -146.268)"/>
    <path id="Path_33" data-name="Path 33" class="cls-7" d="M127.8,577.505l10.354,6.565L168.4,547.255l-15.282-9.688Z"/>
    <path id="Path_34" data-name="Path 34" class="cls-9" d="M285.318,718.718l20.392,12.927h0a15.387,15.387,0,0,1,4.756,21.233l-.268.422-33.387-21.166Z" transform="translate(-158.016 -146.268)"/>
    <path id="Path_35" data-name="Path 35" class="cls-7" d="M225.692,595.15h12.26l5.832-47.288H225.69Z"/>
    <path id="Path_36" data-name="Path 36" class="cls-9" d="M380.581,737.415h24.145A15.387,15.387,0,0,1,420.112,752.8v.5H380.582Z" transform="translate(-158.016 -146.268)"/>
    <path id="Path_37" data-name="Path 37" class="cls-9" d="M349.019,543.284l28.862,173.6s-5.678,14.195,2.839,16.087,27.443-1.893,27.443-1.893,5.678-14.195-2.839-16.087L389.237,533.6Z" transform="translate(-158.016 -146.268)"/>
    <path id="Path_38" data-name="Path 38" class="cls-9" d="M366.053,546.38l-20,81.174-50.978,74.02s-18.926,1.893-8.517,12.3S301.7,725.232,301.7,725.232s16.087-1.893,15.141-9.463L379.518,642l29.118-98.457Z" transform="translate(-158.016 -146.268)"/>
    <path id="Path_39" data-name="Path 39" class="cls-8" d="M348.6,553.529l-4.829-27.558c-7.272-7.6,6.468-26.392,8-28.433l-.9-11.685a3.507,3.507,0,0,1-1.993-1.085c-4.511-4.6-4.208-22.751-4.193-23.522l-4.978-51.785,12.386-7.226,31.322-1.01,15.3,13.256,14.733,135.352-.525.029Z" transform="translate(-158.016 -146.268)"/>
    <path id="Path_40" data-name="Path 40" class="cls-7" d="M359.443,563.194A10.056,10.056,0,0,1,357,547.969L339.174,517l18.535,1.127L371.8,547.363a10.11,10.11,0,0,1-12.353,15.83Z" transform="translate(-158.016 -146.268)"/>
    <path id="Path_41" data-name="Path 41" class="cls-8" d="M343.658,534.233l-15.377-35.644-2.57-72.811a13.1,13.1,0,0,1,6.607-11.862l17.739-10.84,3.827,76.544,11.447,45.748Z" transform="translate(-158.016 -146.268)"/>
    <circle id="Ellipse_5" data-name="Ellipse 5" class="cls-7" cx="22.008" cy="22.008" r="22.008" transform="translate(191.23 204.036)"/>
    <path id="Path_42" data-name="Path 42" class="cls-9" d="M379.212,339.816c-22.165-6.392-28.456,11.979-28.456,11.979-10.684,7.088-3.995,15.975-3.995,15.975-2.7.6,2.694,16.375,4.492,15.975.959-.213,3.425,2.731,5.517,5.522a11.073,11.073,0,0,1,2.137.205l-4.058-15.013s13.679-2.1,17.873-8.685c4.012-6.3,17.221-8.295,20.98-4.084a9.5,9.5,0,0,1,1.341-3.4,6.8,6.8,0,0,1,1.971-1.976C393.689,342.187,379.212,339.816,379.212,339.816Z" transform="translate(-158.016 -146.268)"/>
    <path id="Path_43" data-name="Path 43" class="cls-10" d="M196.224,305.464,195,349.275,210.238,381.4l-14.014-77.1"/>
    <path id="Path_44" data-name="Path 44" class="cls-2" d="M540.016,753.732h-381a1,1,0,0,1,0-2h381a1,1,0,0,1,0,2Z" transform="translate(-158.016 -146.268)"/>
    <path id="Path_45" data-name="Path 45" class="cls-11" d="M487.352,193.546a2,2,0,0,0-3,1.991L485.9,206.86a1.3,1.3,0,0,1-.034.5,1.221,1.221,0,0,1-.237.436l-8.647,10.244a1.954,1.954,0,0,0-.127,2.414l.009.013a1.951,1.951,0,0,0,2.283.752l6.244-2.119a1.2,1.2,0,0,1,1.208.272,1.162,1.162,0,0,1,.372.854l.244,22.249a1.984,1.984,0,0,0,.874,1.629,2,2,0,0,0,1.832.213l46.607-17.824a2,2,0,0,0,.307-3.586l-.635-.377-48.847-28.982Zm-2.209,1.882a1.2,1.2,0,0,1,1.8-1.193l48.832,28.974.65.385a1.2,1.2,0,0,1-.183,2.151L489.637,243.57a1.2,1.2,0,0,1-1.624-1.106l-.244-22.249a1.915,1.915,0,0,0-.112-.646l47.45,5.452a.8.8,0,0,0,.48-1.5.7.7,0,0,0-.125-.054L486.7,207.194a1.97,1.97,0,0,0-.014-.442l-1.544-11.323Z" transform="translate(-158.016 -146.268)"/>
    <path id="Path_46" data-name="Path 46" class="cls-8" d="M487.352,193.546a2,2,0,0,0-3,1.991L485.9,206.86a1.3,1.3,0,0,1-.034.5,1.221,1.221,0,0,1-.237.436l-8.647,10.244a1.954,1.954,0,0,0-.127,2.414l.009.013a1.951,1.951,0,0,0,2.283.752l6.244-2.119a1.2,1.2,0,0,1,1.208.272,1.162,1.162,0,0,1,.372.854l.244,22.249a1.984,1.984,0,0,0,.874,1.629,2,2,0,0,0,1.832.213l46.607-17.824a2,2,0,0,0,.307-3.586l-.635-.377-48.847-28.982Zm-2.209,1.882a1.2,1.2,0,0,1,1.8-1.193l48.832,28.974.65.385a1.2,1.2,0,0,1-.183,2.151L489.637,243.57a1.2,1.2,0,0,1-1.624-1.106l-.244-22.249a1.914,1.914,0,0,0-.112-.646,1.943,1.943,0,0,0-.512-.782c-.032-.032-.066-.061-.1-.09l0,0a1.992,1.992,0,0,0-1.908-.351l-6.248,2.122a1.162,1.162,0,0,1-1.369-.456l0-.007a1.16,1.16,0,0,1,.077-1.447l8.647-10.243a1.885,1.885,0,0,0,.239-.35l0,0a1.917,1.917,0,0,0,.152-.377,1.853,1.853,0,0,0,.071-.389,1.972,1.972,0,0,0-.014-.442l-1.544-11.323Z" transform="translate(-158.016 -146.268)"/>
    <path id="Path_47" data-name="Path 47" class="cls-8" d="M486.7,207.194l48.76,16.276a.7.7,0,0,1,.125.054.8.8,0,0,1-.48,1.5l-47.45-5.452-.838-.1.093-.792.13.012,0,0,48.154,5.529-48.72-16.266,0,0-.211-.073.253-.758Z" transform="translate(-158.016 -146.268)"/>
    <path id="Path_48" data-name="Path 48" class="cls-11" d="M1031.13,146.546l-48.849,28.982-.635.377a2,2,0,0,0,.307,3.586l46.607,17.825a2,2,0,0,0,1.833-.213,1.984,1.984,0,0,0,.874-1.629l.244-22.249a1.162,1.162,0,0,1,.372-.854,1.2,1.2,0,0,1,1.208-.272l6.245,2.12a1.951,1.951,0,0,0,2.283-.752l.009-.013a1.954,1.954,0,0,0-.127-2.413l-8.647-10.244a1.223,1.223,0,0,1-.237-.436,1.3,1.3,0,0,1-.033-.5l1.544-11.323a2,2,0,0,0-3-1.991Zm2.209,1.882-1.544,11.323a1.981,1.981,0,0,0-.014.442L983.018,176.47a.694.694,0,0,0-.125.054.8.8,0,0,0,.48,1.5l47.45-5.452a1.916,1.916,0,0,0-.112.646l-.244,22.249a1.2,1.2,0,0,1-1.624,1.106l-46.607-17.825a1.2,1.2,0,0,1-.183-2.151l.65-.385,48.832-28.973a1.2,1.2,0,0,1,1.8,1.193Z" transform="translate(-158.016 -146.268)"/>
    <path id="Path_49" data-name="Path 49" class="cls-8" d="M1031.13,146.546l-48.849,28.982-.635.377a2,2,0,0,0,.307,3.586l46.607,17.825a2,2,0,0,0,1.833-.213,1.984,1.984,0,0,0,.874-1.629l.244-22.249a1.162,1.162,0,0,1,.372-.854,1.2,1.2,0,0,1,1.208-.272l6.245,2.12a1.951,1.951,0,0,0,2.283-.752l.009-.013a1.954,1.954,0,0,0-.127-2.413l-8.647-10.244a1.223,1.223,0,0,1-.237-.436,1.3,1.3,0,0,1-.033-.5l1.544-11.323a2,2,0,0,0-3-1.991Zm2.209,1.882-1.544,11.323a1.974,1.974,0,0,0-.014.442,1.856,1.856,0,0,0,.071.389,1.907,1.907,0,0,0,.152.377l0,0a1.893,1.893,0,0,0,.239.35l8.647,10.243a1.16,1.16,0,0,1,.077,1.447l0,.007a1.162,1.162,0,0,1-1.369.456l-6.248-2.122a1.992,1.992,0,0,0-1.908.351l0,0c-.035.029-.07.059-.1.09a1.943,1.943,0,0,0-.512.782,1.916,1.916,0,0,0-.112.646l-.244,22.249a1.2,1.2,0,0,1-1.624,1.106l-46.607-17.825a1.2,1.2,0,0,1-.183-2.151l.65-.385,48.832-28.973a1.2,1.2,0,0,1,1.8,1.193Z" transform="translate(-158.016 -146.268)"/>
    <path id="Path_50" data-name="Path 50" class="cls-8" d="M1031.96,160.131l.253.758-.211.073,0,0-48.72,16.266,48.154-5.529,0,0,.13-.012.093.792-.838.1-47.45,5.452a.8.8,0,0,1-.479-1.5.7.7,0,0,1,.125-.054l48.761-16.276Z" transform="translate(-158.016 -146.268)"/>
    <path id="Path_51" data-name="Path 51" class="cls-11" d="M613.142,551.49a2,2,0,0,0,.081,3.6l10.4,4.747a1.3,1.3,0,0,1,.4.3,1.222,1.222,0,0,1,.242.434l4.037,12.783a1.954,1.954,0,0,0,1.972,1.4h.016a1.951,1.951,0,0,0,1.856-1.527l1.546-6.411a1.2,1.2,0,0,1,.875-.875,1.162,1.162,0,0,1,.921.142l18.936,11.684a1.984,1.984,0,0,0,1.844.132,2,2,0,0,0,1.16-1.435l9.842-48.919a2,2,0,0,0-2.868-2.176l-.658.335Zm.41,2.873a1.2,1.2,0,0,1-.045-2.16l50.585-25.79.673-.344a1.2,1.2,0,0,1,1.72,1.3l-9.842,48.919a1.2,1.2,0,0,1-1.8.782L635.906,565.39a1.914,1.914,0,0,0-.606-.251l29.967-37.192a.8.8,0,0,0-1.009-1.205.693.693,0,0,0-.113.076l-39.816,32.515a1.972,1.972,0,0,0-.381-.224l-10.4-4.747Z" transform="translate(-158.016 -146.268)"/>
    <path id="Path_52" data-name="Path 52" class="cls-8" d="M613.142,551.49a2,2,0,0,0,.081,3.6l10.4,4.747a1.3,1.3,0,0,1,.4.3,1.222,1.222,0,0,1,.242.434l4.037,12.783a1.954,1.954,0,0,0,1.972,1.4h.016a1.951,1.951,0,0,0,1.856-1.527l1.546-6.411a1.2,1.2,0,0,1,.875-.875,1.162,1.162,0,0,1,.921.142l18.936,11.684a1.984,1.984,0,0,0,1.844.132,2,2,0,0,0,1.16-1.435l9.842-48.919a2,2,0,0,0-2.868-2.176l-.658.335Zm.41,2.873a1.2,1.2,0,0,1-.045-2.16l50.585-25.79.673-.344a1.2,1.2,0,0,1,1.72,1.3l-9.842,48.919a1.2,1.2,0,0,1-1.8.782L635.906,565.39a1.917,1.917,0,0,0-.606-.251,1.943,1.943,0,0,0-.935.015c-.044.01-.087.024-.13.037h0a1.992,1.992,0,0,0-1.316,1.425l-1.546,6.415a1.162,1.162,0,0,1-1.117.913h-.008a1.16,1.16,0,0,1-1.182-.838l-4.037-12.783a1.888,1.888,0,0,0-.168-.389v0a1.91,1.91,0,0,0-.237-.33,1.862,1.862,0,0,0-.291-.268,1.968,1.968,0,0,0-.381-.224l-10.4-4.747Z" transform="translate(-158.016 -146.268)"/>
    <path id="Path_53" data-name="Path 53" class="cls-8" d="M624.329,559.333l39.816-32.515a.691.691,0,0,1,.113-.077.8.8,0,0,1,1.009,1.205L635.3,565.139l-.528.657-.62-.5.08-.1h0l30.408-37.746-39.785,32.486v0l-.174.139-.505-.619Z" transform="translate(-158.016 -146.268)"/>
  </g>
</svg>
