<?xml version="1.0" standalone="no"?>
<!DOCTYPE svg PUBLIC "-//W3C//DTD SVG 20010904//EN"
 "http://www.w3.org/TR/2001/REC-SVG-20010904/DTD/svg10.dtd">
<svg version="1.0" xmlns="http://www.w3.org/2000/svg"
 width="512.000000pt" height="512.000000pt" viewBox="0 0 512.000000 512.000000"
 preserveAspectRatio="xMidYMid meet">

<g transform="translate(0.000000,512.000000) scale(0.100000,-0.100000)"
fill="#000000" stroke="none">
<path d="M623 4785 c-78 -21 -130 -51 -183 -105 -55 -54 -84 -105 -105 -187
-22 -83 -22 -743 0 -826 42 -162 157 -268 324 -299 l60 -11 3 -361 c3 -350 4
-363 26 -419 28 -69 84 -142 139 -180 76 -53 137 -70 270 -75 l122 -4 3 -417
3 -416 28 -82 c43 -127 128 -244 232 -320 l30 -21 -39 -39 c-21 -21 -51 -63
-65 -93 -26 -54 -26 -57 -26 -290 0 -233 0 -236 26 -290 34 -70 89 -126 159
-158 47 -22 73 -27 172 -30 131 -5 168 4 187 44 17 38 13 63 -14 89 -23 23
-31 25 -132 25 -137 0 -185 20 -221 90 -22 43 -23 53 -20 247 3 221 5 227 72
277 27 21 37 21 829 24 l802 2 45 -22 c33 -17 51 -35 68 -68 20 -41 22 -57 22
-230 0 -173 -2 -189 -22 -230 -17 -33 -35 -51 -68 -67 l-44 -23 -549 0 -548 0
-24 -25 c-40 -39 -27 -104 24 -125 19 -7 194 -10 587 -8 l559 3 55 26 c70 33
126 89 159 159 26 54 26 57 26 290 0 233 0 236 -26 290 -14 30 -44 72 -65 93
l-39 39 30 21 c142 103 240 274 261 455 8 75 -6 115 -47 132 -57 24 -109 -20
-109 -90 0 -197 -177 -407 -378 -449 -75 -16 -1331 -15 -1404 0 -29 7 -78 23
-108 37 -70 33 -188 149 -219 217 -49 103 -51 126 -51 543 l0 392 215 0 c216
0 216 0 240 25 33 32 34 83 2 113 -22 21 -30 21 -432 24 -398 3 -411 4 -450
25 -47 25 -85 64 -111 113 -18 33 -19 74 -22 708 l-3 672 207 0 c179 0 205 -2
194 -14 -19 -24 -91 -54 -145 -62 -29 -3 -60 -15 -72 -27 -22 -20 -23 -27 -23
-177 0 -151 1 -157 23 -178 32 -30 81 -29 112 3 23 22 25 31 25 125 0 89 2
100 18 100 62 0 200 104 249 187 l25 43 370 0 370 0 -27 -35 c-42 -56 -92
-173 -109 -257 -60 -292 65 -593 292 -706 72 -35 81 -37 172 -37 91 0 100 2
171 37 142 70 257 227 294 403 22 103 20 141 -10 170 -50 51 -135 15 -135 -57
-1 -98 -54 -230 -123 -305 -130 -142 -325 -117 -436 55 -59 92 -74 153 -74
292 0 104 3 135 21 184 80 218 250 308 413 220 58 -32 109 -85 140 -146 12
-24 29 -48 38 -55 43 -33 121 4 121 58 0 37 -23 93 -55 135 -14 18 -25 35 -25
38 0 3 164 6 364 6 l364 0 25 -43 c49 -83 187 -187 250 -187 16 0 17 -22 17
-330 0 -315 -1 -330 -19 -330 -10 0 -45 -13 -77 -30 -32 -16 -59 -28 -59 -27
0 1 -8 33 -18 70 -31 127 -113 227 -227 281 -59 28 -74 31 -165 31 -88 0 -107
-3 -158 -27 -80 -38 -160 -117 -200 -197 -32 -65 -32 -67 -35 -238 l-4 -173
-724 0 c-683 0 -724 1 -724 18 0 35 -51 124 -101 177 -51 54 -152 115 -191
115 -16 0 -18 10 -18 100 0 94 -2 103 -25 125 -32 33 -83 34 -113 2 -21 -22
-22 -33 -22 -178 0 -184 2 -188 109 -207 116 -21 182 -87 203 -203 6 -37 20
-74 31 -86 l20 -23 779 0 778 0 0 -80 0 -80 -418 0 -419 0 -21 -23 c-30 -32
-29 -81 3 -112 24 -25 25 -25 221 -25 l196 0 -77 -72 c-42 -39 -96 -99 -119
-132 -103 -145 -166 -330 -166 -488 0 -49 4 -63 25 -83 31 -32 78 -33 109 -2
18 18 24 39 30 102 13 144 46 240 122 356 120 183 314 294 547 315 131 12 121
-22 127 416 5 358 6 375 27 413 46 86 117 129 213 130 54 0 73 -5 113 -28 52
-31 100 -95 117 -157 6 -21 10 -264 10 -607 0 -404 3 -579 11 -597 26 -55 112
-55 138 0 7 16 11 98 11 228 l0 204 163 4 c137 4 170 8 217 26 110 44 187 122
234 236 20 48 21 73 24 412 l3 361 60 11 c172 32 294 150 329 319 7 33 10 185
8 425 -3 358 -4 375 -25 427 -46 112 -122 189 -230 233 l-58 23 -1405 3 c-993
2 -1413 -1 -1431 -9 -47 -19 -62 -80 -30 -120 l19 -24 1414 -5 1413 -5 40 -22
c47 -25 85 -64 111 -113 18 -32 19 -64 19 -420 0 -356 -1 -388 -19 -420 -39
-73 -102 -121 -179 -135 l-37 -7 0 241 c0 211 2 241 15 241 9 0 27 11 40 25
33 32 33 78 0 110 l-24 25 -1871 0 -1871 0 -24 -25 c-33 -32 -33 -78 0 -110
13 -14 31 -25 40 -25 13 0 15 -30 15 -240 0 -268 6 -251 -74 -228 -55 16 -138
99 -154 154 -17 58 -17 730 0 788 16 55 99 138 154 154 29 8 146 12 393 12
l352 0 24 25 c39 38 27 102 -22 124 -38 17 -703 14 -770 -4z m3615 -1457 c-3
-671 -3 -673 -25 -714 -55 -102 -132 -134 -325 -134 l-128 0 0 128 c0 84 5
145 15 178 28 94 103 155 210 170 29 3 60 15 73 27 l22 20 0 437 0 437 -22 20
c-13 12 -44 24 -73 27 -54 8 -126 38 -145 62 -11 12 15 14 194 14 l207 0 -3
-672z"/>
</g>
</svg>
