<?xml version="1.0" standalone="no"?>
<!DOCTYPE svg PUBLIC "-//W3C//DTD SVG 20010904//EN"
 "http://www.w3.org/TR/2001/REC-SVG-20010904/DTD/svg10.dtd">
<svg version="1.0" xmlns="http://www.w3.org/2000/svg"
 width="337.000000pt" height="339.000000pt" viewBox="0 0 337.000000 339.000000"
 preserveAspectRatio="xMidYMid meet">

<g transform="translate(0.000000,339.000000) scale(0.100000,-0.100000)"
fill="#000000" stroke="none">
<path d="M1374 2516 c-33 -24 -73 -59 -91 -77 -72 -77 -143 -233 -143 -316 0
-40 23 -42 28 -2 16 144 109 296 233 380 33 22 59 44 59 49 0 20 -30 9 -86
-34z"/>
<path d="M1940 2552 c0 -5 22 -23 49 -40 113 -74 208 -212 235 -344 13 -65 36
-91 36 -41 0 85 -69 233 -148 315 -77 81 -172 142 -172 110z"/>
<path d="M1583 2526 c-179 -44 -324 -193 -362 -374 -6 -30 -9 -58 -5 -63 12
-19 23 -7 29 33 4 24 17 50 31 64 23 20 162 79 170 71 2 -2 -1 -30 -6 -63 -13
-81 -13 -114 3 -114 9 0 17 29 24 91 7 50 14 93 16 95 7 8 121 24 165 24 l44
0 -3 -102 c-2 -85 0 -103 12 -103 11 0 13 18 11 103 l-3 102 43 0 c47 0 158
-16 166 -24 3 -3 9 -46 15 -96 8 -68 14 -90 25 -90 12 0 14 12 8 68 -3 37 -9
78 -13 91 -5 21 -4 23 18 16 133 -41 172 -70 183 -134 8 -55 33 -51 27 5 -8
93 -85 232 -162 295 -124 101 -288 141 -436 105z m107 -111 l0 -95 -37 0 c-21
0 -65 -4 -97 -10 -33 -5 -61 -8 -63 -6 -7 6 46 137 67 166 21 29 39 36 98 39
l32 1 0 -95z m100 89 c38 -8 70 -52 100 -138 11 -33 19 -60 18 -62 -2 -1 -46
3 -98 10 l-95 12 -3 92 c-3 103 -4 102 78 86z m-276 -51 c-4 -10 -19 -51 -33
-90 -23 -64 -29 -73 -56 -79 -16 -4 -54 -17 -84 -30 -30 -14 -56 -22 -59 -19
-10 10 65 119 108 157 42 38 104 77 124 78 4 0 5 -8 0 -17z m422 -9 c21 -14
56 -42 78 -62 39 -38 111 -140 103 -148 -2 -2 -28 6 -58 20 -30 13 -68 27 -85
30 -28 6 -33 13 -43 53 -7 25 -21 63 -31 84 -31 59 -24 63 36 23z"/>
<path d="M1121 2042 c-8 -3 -11 -85 -11 -297 l0 -294 228 -3 c246 -3 232 0
340 -69 19 -12 25 -12 45 0 107 69 92 66 340 69 l227 3 -2 297 -3 297 -225 -2
-225 -2 -67 -34 -68 -35 -68 35 -69 35 -215 2 c-118 1 -220 0 -227 -2z m492
-60 l66 -33 3 -82 c2 -65 6 -82 18 -82 12 0 16 17 18 82 l3 82 67 33 67 33
200 0 200 0 3 -267 2 -267 -218 -3 c-214 -3 -219 -3 -270 -30 l-51 -27 -3 137
c-3 114 -6 137 -18 137 -12 0 -15 -23 -18 -137 l-3 -137 -52 27 c-51 27 -56
27 -269 30 l-218 3 0 263 c0 144 3 266 8 270 4 5 95 6 203 4 l195 -3 67 -33z"/>
<path d="M1334 1921 c-123 -56 -160 -229 -72 -335 42 -51 98 -76 173 -76 74 0
131 25 172 74 92 112 57 277 -72 337 -53 25 -147 25 -201 0z m151 -22 c113
-32 167 -175 101 -271 -40 -58 -70 -73 -151 -73 -81 0 -111 15 -151 73 -64 93
-18 229 91 267 49 17 60 18 110 4z"/>
<path d="M1760 1725 l0 -215 25 0 26 0 -5 170 c-3 94 -2 170 3 170 4 0 67 -76
141 -170 86 -110 140 -170 152 -170 17 0 18 13 18 215 0 208 -1 215 -20 215
-19 0 -20 -7 -20 -170 0 -93 -3 -170 -7 -170 -5 1 -68 77 -141 170 -90 115
-140 170 -153 170 -18 0 -19 -9 -19 -215z"/>
<path d="M1042 1528 l3 -153 255 -5 c276 -5 265 -3 362 -67 l37 -25 58 36 c32
20 74 41 93 46 19 6 142 10 272 10 l238 0 0 156 c0 120 -3 155 -12 152 -9 -3
-14 -42 -16 -135 l-3 -131 -232 -4 c-249 -5 -275 -10 -356 -64 l-41 -27 -41
27 c-82 55 -106 59 -354 63 l-230 3 -5 132 c-4 94 -9 133 -18 136 -10 3 -12
-29 -10 -150z"/>
<path d="M1062 1143 l-2 -83 64 0 c56 0 66 3 71 20 5 16 15 20 50 20 34 0 47
-5 55 -20 6 -11 15 -20 20 -20 5 0 -8 36 -27 80 -20 44 -40 80 -45 80 -5 0
-25 -34 -43 -75 l-34 -75 -50 0 -50 0 -4 78 -3 77 -2 -82z m206 14 c7 -18 12
-36 12 -39 0 -6 -52 -8 -62 -1 -8 4 22 73 32 73 3 0 11 -15 18 -33z"/>
<path d="M1362 1139 c2 -76 2 -78 5 -21 2 34 7 62 11 62 4 -1 27 -28 51 -60
25 -33 49 -60 53 -60 4 0 8 36 8 80 0 50 -4 80 -11 80 -6 0 -9 -22 -7 -60 2
-33 1 -60 -2 -60 -3 0 -23 22 -43 49 -65 85 -67 85 -65 -10z"/>
<path d="M1555 1195 c-31 -30 -32 -73 -4 -109 18 -23 27 -27 67 -24 43 3 47 5
53 36 4 18 3 35 -2 38 -5 3 -9 -8 -9 -25 0 -25 -5 -32 -26 -37 -54 -14 -95 31
-80 90 7 30 59 51 88 35 23 -12 39 -2 18 11 -29 18 -80 11 -105 -15z"/>
<path d="M1720 1162 c0 -73 18 -102 65 -102 52 0 65 20 63 98 l-1 67 -6 -62
c-7 -76 -27 -102 -68 -87 -26 9 -28 13 -31 77 -4 82 -22 90 -22 9z"/>
<path d="M1915 1144 c-39 -85 -39 -84 -26 -84 5 0 13 9 16 20 10 30 87 29 108
-2 8 -13 17 -21 20 -18 7 7 -64 160 -75 160 -5 0 -24 -34 -43 -76z m63 13 c17
-46 16 -49 -15 -45 -35 4 -38 11 -23 48 16 38 23 38 38 -3z"/>
<path d="M2075 1194 c-57 -62 -8 -144 80 -134 11 1 26 7 33 12 14 12 16 54 2
63 -6 4 -10 -6 -10 -23 0 -45 -54 -58 -90 -22 -50 50 10 142 72 109 23 -12 39
-2 18 11 -30 19 -80 11 -105 -16z"/>
<path d="M2247 1213 c-4 -3 -7 -39 -7 -80 l0 -73 63 2 62 2 -52 3 c-51 4 -53
5 -53 34 0 27 2 29 40 29 22 0 40 5 40 10 0 6 -18 10 -41 10 -38 0 -40 2 -37
27 3 26 6 28 46 25 25 -2 42 1 42 7 0 12 -92 16 -103 4z"/>
<path d="M1095 949 c-32 -18 -45 -40 -45 -76 0 -65 75 -106 126 -69 10 8 16
18 11 22 -4 4 -13 2 -19 -4 -33 -33 -102 7 -96 55 2 14 15 35 30 46 24 18 31
19 54 8 28 -12 44 -7 28 9 -16 16 -68 21 -89 9z"/>
<path d="M1294 950 c-52 -21 -69 -89 -35 -131 28 -35 104 -34 131 1 26 33 25
73 -2 104 -26 29 -63 39 -94 26z m71 -35 c14 -13 25 -30 25 -38 0 -26 -41 -67
-66 -67 -29 0 -64 33 -64 60 0 25 42 70 65 70 9 0 27 -11 40 -25z"/>
<path d="M1586 953 c-3 -3 -6 -32 -6 -63 0 -58 -11 -80 -41 -80 -33 0 -49 29
-49 86 0 30 -4 54 -10 54 -6 0 -10 -27 -10 -60 0 -69 21 -100 68 -100 44 0 63
28 65 100 2 59 -3 77 -17 63z"/>
<path d="M1882 944 c-14 -10 -22 -24 -20 -36 3 -21 10 -26 62 -50 52 -23 20
-62 -34 -41 -24 9 -30 9 -30 -2 0 -17 59 -30 89 -20 21 6 38 46 27 64 -4 5
-23 15 -44 21 -49 16 -58 26 -42 45 10 12 23 15 47 10 37 -7 46 9 11 19 -34 9
-41 8 -66 -10z"/>
<path d="M2093 953 l-53 -4 0 -80 0 -79 60 0 c71 0 81 18 13 22 -44 3 -48 5
-48 28 0 22 6 26 40 31 l40 5 -40 5 c-32 3 -41 8 -43 27 -3 20 1 22 42 22 34
0 46 4 46 15 0 8 -1 14 -2 13 -2 -1 -27 -3 -55 -5z"/>
<path d="M2232 944 c-14 -10 -22 -24 -20 -36 3 -21 10 -26 62 -50 52 -23 20
-62 -34 -41 -24 9 -30 9 -30 -2 0 -30 78 -34 104 -6 27 29 12 59 -34 71 -46
12 -57 25 -39 46 9 11 22 14 46 9 37 -7 46 9 11 19 -34 9 -41 8 -66 -10z"/>
<path d="M1680 870 c0 -47 4 -80 10 -80 6 0 10 11 10 25 0 20 5 25 26 25 16 0
34 -10 46 -25 25 -33 45 -32 24 0 -15 23 -15 28 -1 47 34 50 5 88 -68 88 l-47
0 0 -80z m98 48 c7 -7 12 -15 12 -19 0 -18 -34 -39 -61 -39 -27 0 -29 3 -29
35 0 33 2 35 33 35 18 0 38 -5 45 -12z"/>
</g>
</svg>
